<?xml version="1.0" standalone="no"?>
<!DOCTYPE svg PUBLIC "-//W3C//DTD SVG 20010904//EN"
 "http://www.w3.org/TR/2001/REC-SVG-20010904/DTD/svg10.dtd">
<svg version="1.0" xmlns="http://www.w3.org/2000/svg"
 width="275.000000pt" height="183.000000pt" viewBox="0 0 275.000000 183.000000"
 preserveAspectRatio="xMidYMid meet">

<g transform="translate(0.000000,183.000000) scale(0.100000,-0.100000)"
fill="#000000" stroke="none">
<path d="M2130 1811 c0 -14 -16 -26 -55 -42 -30 -12 -53 -24 -51 -27 3 -2 26
6 52 17 26 12 50 19 53 15 3 -3 8 -63 9 -134 l4 -129 -39 -10 c-100 -26 -134
-33 -139 -28 -4 3 -6 45 -6 94 -1 61 -5 92 -15 101 -18 18 -27 9 -15 -15 6
-11 8 -137 4 -336 l-5 -317 -81 5 c-45 4 -96 8 -114 11 l-33 5 1 192 c2 295 1
347 -7 347 -5 0 -8 -120 -8 -267 l0 -268 -30 -6 c-24 -4 -16 -7 35 -12 91 -9
414 -37 428 -37 7 0 12 -11 12 -25 0 -23 13 -31 43 -26 5 1 6 -3 3 -8 -4 -5
-3 -11 1 -14 5 -2 3 -3 -3 -1 -6 1 -26 -6 -43 -17 -40 -24 -49 -19 -43 23 4
28 3 31 -10 21 -8 -7 -18 -10 -21 -6 -7 6 -11 -11 -8 -33 2 -13 -27 -27 -39
-19 -4 3 -6 -5 -2 -17 3 -13 1 -19 -5 -15 -14 9 -23 -26 -12 -46 9 -16 -5 -18
-26 -5 -6 4 -12 -4 -13 -19 -2 -31 -11 -45 -23 -38 -5 4 -4 -5 2 -18 8 -18 35
-33 111 -61 56 -20 115 -40 132 -43 45 -8 66 -21 66 -41 0 -14 -10 -17 -51
-19 -28 -1 -80 -9 -116 -18 -99 -25 -236 -54 -384 -82 -20 -4 -31 2 -53 31
-27 35 -100 80 -201 122 -27 11 -67 28 -87 37 -21 9 -42 17 -48 17 -17 0 -11
18 8 24 9 2 82 12 162 22 134 16 214 32 167 33 -9 1 -25 5 -35 10 -9 5 -48 18
-87 30 -55 16 -79 18 -115 11 -25 -5 -67 -9 -95 -8 l-50 1 40 6 40 6 -30 12
c-16 6 -24 12 -17 12 21 2 13 27 -9 28 -28 2 -37 12 -20 23 12 7 14 53 12 250
l-2 243 56 -5 c31 -3 58 -1 61 4 3 4 -17 8 -45 8 -41 0 -49 3 -45 15 4 8 -1
17 -10 21 -12 5 -16 20 -16 65 l0 59 38 -5 c20 -2 58 -7 85 -10 l47 -6 0 -60
c0 -33 4 -59 10 -59 6 0 10 20 10 44 0 42 19 78 21 39 0 -16 1 -16 9 2 8 18 9
18 11 3 2 -21 2 -68 0 -99 0 -11 -5 -18 -10 -15 -13 8 -18 -12 -12 -48 l5 -31
7 30 7 30 1 -27 c2 -43 31 -37 31 6 0 19 6 37 13 39 10 4 10 6 0 6 -9 1 -13
21 -13 64 0 34 -4 69 -10 77 -6 9 -5 17 3 23 7 5 3 6 -10 2 -13 -3 -23 -2 -23
2 0 5 -51 15 -112 21 -62 7 -230 26 -373 42 -143 17 -399 46 -570 65 -171 19
-328 37 -349 40 l-39 6 7 -408 c3 -224 9 -438 13 -475 l6 -68 -37 -34 c-54
-52 -49 -86 9 -56 19 10 48 16 67 14 18 -2 36 1 41 8 5 8 6 4 2 -12 -26 -96
-15 -111 91 -118 47 -3 74 -1 74 6 0 21 170 34 186 14 8 -11 19 -12 50 -4 21
6 66 14 99 18 85 10 84 9 91 17 4 4 22 7 41 7 18 0 33 5 33 10 0 6 12 10 28
11 15 0 36 5 47 10 13 5 -18 6 -82 3 -68 -4 -103 -3 -103 4 0 17 50 24 170 23
69 0 135 5 165 13 l50 14 -40 2 c-22 1 -45 2 -51 1 -12 -1 -7 46 5 53 3 2 50
7 104 11 l97 7 0 -70 0 -70 -35 -4 c-39 -4 -51 4 -58 42 -4 21 -4 20 -6 -7 0
-18 -8 -36 -17 -41 -13 -7 -6 -12 32 -21 27 -6 69 -12 94 -13 44 -3 45 -4 48
-40 2 -25 7 -35 16 -32 7 3 33 -11 59 -31 45 -35 58 -64 39 -90 -8 -12 -70
-37 -94 -38 -9 -1 -15 -4 -13 -7 2 -3 -21 -6 -51 -6 -30 1 -54 2 -54 4 0 2 5
12 10 22 6 11 8 31 4 45 -5 20 -9 23 -20 14 -18 -15 -18 -5 1 30 14 28 14 29
-9 27 -14 0 -22 -6 -19 -14 3 -6 -2 -12 -11 -12 -10 0 -14 6 -10 17 3 10 -2 7
-10 -7 -8 -14 -15 -20 -16 -14 0 7 -9 14 -19 17 -15 3 -21 -1 -24 -17 l-4 -21
-2 21 c-1 22 -31 43 -31 23 0 -6 -9 -1 -20 12 -11 14 -19 18 -20 11 0 -7 -5
-10 -11 -7 -6 4 -25 8 -43 9 -18 1 -36 5 -42 8 -5 4 -26 9 -47 13 -20 4 -37
11 -37 16 0 20 -31 7 -42 -16 -9 -20 -9 -34 0 -59 16 -44 0 -81 -42 -96 -80
-30 -112 -45 -130 -59 -10 -9 -20 -14 -21 -11 -2 3 -7 2 -11 -2 -4 -5 -2 -8 5
-8 7 0 9 -5 6 -10 -4 -6 -10 -8 -15 -5 -4 3 -11 -1 -14 -7 -3 -7 -3 -3 0 10 8
31 -4 28 -17 -5 -16 -43 -18 -86 -4 -118 l12 -30 7 37 c4 23 2 46 -4 58 -10
19 -9 21 17 17 18 -2 29 -10 31 -23 1 -10 5 -30 8 -44 l6 -25 13 30 13 30 1
-27 c1 -28 31 -42 31 -15 0 8 3 8 8 2 4 -6 18 -12 32 -13 14 0 26 -6 28 -12 2
-5 8 -10 13 -10 6 0 8 4 4 9 -3 5 8 9 23 9 16 -1 34 2 41 6 6 4 11 2 11 -4 0
-6 4 -9 9 -5 5 3 13 0 17 -6 4 -8 9 -7 15 2 7 12 12 12 29 1 16 -10 25 -10 35
-2 10 8 19 8 34 -2 12 -7 21 -16 21 -20 0 -5 6 -8 14 -8 8 0 16 -6 19 -12 2
-7 8 -10 12 -6 4 4 -6 18 -21 32 -16 14 -24 26 -17 26 6 0 18 -7 27 -15 8 -8
21 -12 29 -9 8 3 18 1 22 -5 3 -7 0 -8 -9 -5 -9 3 -16 1 -16 -5 0 -14 82 -10
92 4 5 6 8 5 8 -3 0 -8 9 -11 28 -7 l27 5 -29 -13 -28 -14 23 -6 c50 -14 154
3 170 26 4 6 15 7 24 3 9 -3 26 -1 38 5 16 9 22 9 25 0 2 -6 13 -11 23 -11 11
0 18 3 16 7 -5 8 29 13 106 16 20 1 37 5 37 10 0 5 9 6 20 2 18 -6 60 2 101
19 9 4 23 1 30 -6 15 -15 63 -39 93 -48 14 -4 2 -11 -42 -24 -34 -11 -62 -22
-62 -27 0 -11 28 -19 48 -13 13 5 14 4 3 -4 -15 -11 -5 -36 13 -29 6 2 22 7
36 11 19 6 22 5 10 -3 -11 -8 37 -11 173 -10 113 0 185 4 182 10 -4 5 -2 9 4
9 5 0 13 -4 16 -10 3 -5 20 -10 37 -10 l31 0 -24 26 -24 26 45 -26 c45 -25 47
-26 263 -26 l217 0 0 915 0 915 -310 0 c-298 0 -310 -1 -310 -19z m-1750 -201
c63 -6 135 -13 159 -16 l43 -6 -4 -59 c-4 -56 -3 -58 18 -53 12 3 25 1 28 -5
4 -6 4 -11 -1 -12 -4 0 -19 -2 -33 -4 -25 -4 -280 11 -357 21 l-43 5 0 75 0
76 38 -6 c20 -3 89 -10 152 -16z m525 -55 c88 -8 190 -18 228 -21 l67 -7 0
-64 0 -63 -57 5 c-32 3 -78 8 -101 10 -80 9 -110 -12 -103 -72 2 -19 -3 -23
-23 -23 -14 0 -26 -4 -26 -10 0 -5 -9 -14 -20 -20 -19 -10 -19 -9 2 27 l22 38
-22 -19 c-12 -11 -25 -17 -28 -13 -9 9 16 48 29 45 7 -1 24 9 38 24 l26 26
-56 6 c-31 3 -91 8 -133 11 l-78 7 0 62 c0 35 3 66 7 69 4 4 20 5 37 2 17 -3
103 -12 191 -20z m1228 -316 l-6 -236 -66 4 c-36 3 -72 6 -79 9 -10 3 -12 51
-10 216 l3 212 69 18 c38 10 71 20 74 23 17 17 20 -33 15 -246z m-1610 149
c47 -9 57 -14 57 -31 0 -14 -3 -17 -12 -10 -17 13 -58 23 -58 14 0 -8 71 -47
82 -44 4 2 12 -7 18 -20 10 -20 10 -21 -3 -4 -23 28 -28 7 -25 -99 2 -86 1
-97 -17 -111 -20 -15 -20 -15 1 -9 21 6 22 4 16 -60 -4 -61 -3 -67 12 -61 10
4 35 7 56 7 l39 0 3 53 c3 49 4 51 17 28 10 -18 10 -25 1 -31 -8 -5 -5 -9 9
-13 28 -7 27 14 -3 50 -13 15 -25 43 -28 61 -4 31 4 43 17 22 9 -15 25 -12 25
4 0 8 -9 21 -21 29 -16 12 -21 28 -24 76 -5 67 5 72 30 18 9 -18 13 -24 10
-14 -3 10 -5 27 -5 37 0 11 -10 28 -22 40 -12 11 -17 20 -11 20 17 0 34 -26
48 -72 9 -28 14 -35 14 -20 1 12 6 22 12 22 6 0 9 -6 6 -14 -3 -8 0 -20 8 -26
10 -9 15 -6 20 10 7 22 32 22 27 0 -2 -8 3 -10 15 -5 10 4 27 10 38 13 26 7
46 22 40 32 -3 4 2 13 10 20 13 11 15 -5 15 -131 -1 -104 -3 -139 -11 -126 -6
9 -14 15 -20 12 -5 -4 -9 1 -9 9 0 9 -4 16 -10 16 -5 0 -10 -7 -10 -15 0 -8
-9 -15 -20 -15 -11 0 -20 -5 -20 -11 0 -5 4 -8 9 -4 5 3 25 -3 43 -13 30 -17
34 -24 44 -90 6 -40 7 -72 3 -72 -4 0 -10 6 -12 13 -4 9 -8 8 -16 -3 -8 -11
-13 -12 -18 -4 -5 6 -28 15 -52 19 l-43 7 5 44 c2 24 2 46 -2 49 -3 4 -7 33
-8 67 -2 49 0 59 12 55 8 -4 16 2 20 14 4 10 13 19 20 19 8 0 31 11 51 25 l37
25 -32 0 c-24 0 -31 -4 -31 -20 0 -11 -7 -20 -15 -20 -12 0 -14 4 -5 20 6 10
16 23 23 27 22 14 50 53 39 53 -20 0 -81 -61 -76 -75 4 -8 -3 -15 -17 -17 -13
-2 -29 -14 -36 -27 -11 -23 -12 -22 -19 29 -5 40 -9 49 -15 34 -4 -11 -3 -40
2 -65 11 -61 11 -98 0 -80 -6 10 -9 -4 -7 -40 3 -69 -1 -81 -26 -73 -17 5 -19
3 -13 -17 4 -12 8 -35 9 -50 1 -15 5 -31 9 -35 14 -15 6 -22 -29 -26 -32 -4
-35 -2 -32 17 4 19 1 20 -62 17 l-66 -4 -12 40 c-7 21 -12 47 -12 56 0 14 -4
15 -20 6 -11 -6 -20 -18 -21 -28 -1 -11 -4 -8 -9 8 -8 24 -8 24 -9 3 -1 -27
-21 -31 -22 -5 0 14 -2 14 -9 -3 l-9 -20 -1 20 c-2 17 -3 16 -10 -5 -4 -14 -8
-19 -9 -12 -1 6 -13 12 -27 12 -16 0 -24 5 -21 13 2 6 14 11 26 10 11 -2 21 2
21 7 0 6 -6 9 -12 8 -7 -2 -14 7 -16 20 -3 17 2 22 20 23 22 0 22 1 3 8 -11 5
-30 5 -42 0 -26 -10 -32 8 -10 30 10 11 9 13 -6 7 -10 -3 -23 -6 -29 -6 -6 0
-5 -7 3 -17 8 -9 9 -14 2 -10 -6 4 -19 4 -28 1 -12 -5 -13 -9 -4 -14 8 -6 5
-11 -10 -20 -17 -9 -20 -14 -11 -25 6 -8 19 -11 28 -9 15 5 15 4 0 -6 -10 -6
-22 -18 -28 -28 -11 -16 -11 -16 -6 1 3 11 2 15 -4 12 -6 -3 -10 -15 -10 -25
0 -10 -4 -22 -10 -25 -6 -4 -10 14 -10 47 0 29 -3 64 -7 77 -6 22 -4 23 22 17
25 -6 26 -5 12 9 -9 8 -20 15 -25 15 -11 0 -22 143 -22 281 l0 99 138 -6 c75
-2 163 -10 195 -16z m297 -24 c0 -11 -45 -84 -52 -84 -5 0 -8 11 -8 24 0 13
-7 29 -15 36 -26 21 -17 30 30 30 25 0 45 -2 45 -6z m333 -12 l47 -5 0 -243
c0 -240 0 -244 21 -244 11 0 18 -4 14 -9 -3 -5 -24 -9 -48 -8 -27 1 -42 -2
-43 -10 -1 -7 -2 -15 -3 -18 0 -3 -12 2 -26 11 -14 9 -28 14 -32 11 -3 -4 5
-10 17 -15 31 -12 15 -20 -45 -23 -40 -2 -50 0 -49 12 1 9 -5 16 -12 16 -8 0
-14 -10 -14 -22 0 -18 -5 -21 -30 -17 -16 2 -30 8 -30 12 0 5 -3 16 -6 25 -5
13 -2 15 18 10 22 -6 25 -3 26 25 0 17 6 38 13 46 9 10 10 44 6 119 -4 76 -3
105 6 108 9 3 9 12 0 39 -7 19 -13 69 -13 112 l0 77 68 -2 c37 -1 88 -4 115
-7z m1380 -39 c-15 -3 -23 -12 -24 -26 -2 -20 -2 -20 -6 2 -4 19 -7 21 -14 10
-7 -11 -9 -11 -9 4 0 13 8 17 38 16 23 -1 28 -3 15 -6z m14 -29 c-3 -3 -12 -4
-19 -1 -8 3 -5 6 6 6 11 1 17 -2 13 -5z m20 -26 c-3 -8 -6 -5 -6 6 -1 11 2 17
5 13 3 -3 4 -12 1 -19z m-77 2 c0 -5 -5 -10 -11 -10 -5 0 -7 5 -4 10 3 6 8 10
11 10 2 0 4 -4 4 -10z m55 0 c3 -5 -1 -10 -9 -10 -9 0 -16 5 -16 10 0 6 4 10
9 10 6 0 13 -4 16 -10z m-470 -369 c3 -5 1 -12 -4 -15 -5 -3 -11 1 -15 9 -6
16 9 21 19 6z m335 3 c-38 -8 -90 -9 -90 -2 0 4 24 7 53 7 28 -1 45 -3 37 -5z
m-231 -17 c-2 -1 -13 -9 -24 -17 -19 -14 -19 -14 -6 3 7 9 18 17 24 17 6 0 8
-1 6 -3z m-1290 -69 c1 -9 -86 -37 -141 -44 -38 -5 -48 -4 -48 8 0 10 13 15
43 17 23 1 55 9 71 17 16 7 35 14 43 14 7 0 13 8 14 18 0 14 2 14 9 -3 5 -11
9 -23 9 -27z m-249 2 c0 -39 -93 -41 -98 -2 -3 20 0 22 47 22 44 0 51 -3 51
-20z m576 -5 c15 -14 23 -25 18 -25 -5 0 -1 -5 9 -11 14 -8 16 -14 6 -25 -9
-12 -9 -13 2 -9 10 4 15 -1 15 -15 0 -11 -6 -20 -14 -20 -7 0 -10 -4 -7 -10 3
-5 0 -10 -7 -10 -9 0 -9 -3 2 -10 13 -8 12 -10 -2 -10 -15 0 -18 10 -18 64 0
61 -1 65 -29 77 -16 7 -27 17 -25 21 9 14 22 9 50 -17z m-840 -10 c2 -16 -23
-28 -31 -15 -4 6 -1 10 4 10 6 0 11 8 11 17 0 19 13 10 16 -12z m2144 8 c-14
-9 -32 -26 -40 -37 -22 -32 -66 -76 -75 -76 -4 0 -18 -9 -31 -19 -14 -11 -33
-17 -45 -14 -12 4 -25 0 -30 -8 -13 -21 -37 17 -44 71 -4 25 -9 52 -11 62 -4
14 8 17 83 23 48 3 93 8 98 10 6 2 35 4 65 4 54 1 54 1 30 -16z m-2099 -46
c-13 -13 -16 -10 -25 28 l-7 30 21 -23 c16 -17 19 -27 11 -35z m37 -7 c-1 -19
-8 -30 -17 -30 -12 0 -12 3 -3 12 7 7 12 20 12 30 0 10 2 18 5 18 3 0 4 -13 3
-30z m447 -40 c3 -5 1 -10 -4 -10 -6 0 -11 5 -11 10 0 6 2 10 4 10 3 0 8 -4
11 -10z m65 0 c-8 -5 -22 -10 -30 -10 -13 0 -13 1 0 10 8 5 22 10 30 10 13 0
13 -1 0 -10z m1010 -5 c0 -9 -5 -10 -30 -6 -19 2 -10 18 10 17 11 0 20 -5 20
-11z m-1120 -5 c-8 -5 -24 -10 -35 -10 -17 0 -17 2 -5 10 8 5 24 10 35 10 17
0 17 -2 5 -10z m-225 -21 c-47 -10 -115 -10 -115 1 0 5 26 10 58 12 68 4 100
-4 57 -13z m164 17 c-10 -9 -109 -14 -104 -6 4 6 29 10 57 10 28 0 49 -2 47
-4z m491 -60 c0 -3 -4 -8 -10 -11 -5 -3 -10 -1 -10 4 0 6 5 11 10 11 6 0 10
-2 10 -4z m135 -216 c3 -5 1 -10 -4 -10 -6 0 -11 5 -11 10 0 6 2 10 4 10 3 0
8 -4 11 -10z m472 -16 c-3 -3 -12 -4 -19 -1 -8 3 -5 6 6 6 11 1 17 -2 13 -5z
m-44 -11 c-7 -2 -19 -2 -25 0 -7 3 -2 5 12 5 14 0 19 -2 13 -5z m-74 -17 c-2
-2 -20 -6 -39 -10 -25 -4 -31 -3 -20 4 14 9 69 15 59 6z m-86 -23 c-7 -2 -19
-2 -25 0 -7 3 -2 5 12 5 14 0 19 -2 13 -5z m542 -103 c3 -6 -1 -7 -9 -4 -18 7
-21 14 -7 14 6 0 13 -4 16 -10z m120 -48 c-5 -5 -95 47 -95 54 0 3 22 -7 49
-23 28 -15 48 -29 46 -31z m-10 30 c-3 -3 -11 0 -18 7 -9 10 -8 11 6 5 10 -3
15 -9 12 -12z m-65 -22 c0 5 16 2 35 -7 27 -13 32 -19 21 -25 -8 -4 -22 -5
-31 -2 -13 6 -14 9 -3 16 9 7 8 8 -7 5 -19 -3 -75 18 -75 29 0 2 14 -2 30 -11
17 -9 30 -11 30 -5z m-35 -18 c43 -22 53 -31 40 -35 -9 -4 -24 -3 -33 2 -9 4
-24 6 -32 3 -13 -4 -13 -3 -2 10 14 17 1 34 -17 24 -5 -4 -17 -3 -26 0 -13 5
-14 8 -3 15 7 5 14 9 15 9 0 0 27 -13 58 -28z m-478 -18 c-3 -3 -12 -4 -19 -1
-8 3 -5 6 6 6 11 1 17 -2 13 -5z m268 -13 c-6 -5 -21 -11 -35 -15 -21 -5 -20
-3 5 9 35 17 42 18 30 6z m130 -21 c-3 -5 -12 -10 -18 -10 -7 0 -6 4 3 10 19
12 23 12 15 0z m-198 -6 c-3 -3 -12 -4 -19 -1 -8 3 -5 6 6 6 11 1 17 -2 13 -5z
m74 -9 c-18 -8 -36 -15 -40 -15 -13 1 45 29 59 29 8 0 0 -6 -19 -14z m-754
-11 c-3 -3 -12 -4 -19 -1 -8 3 -5 6 6 6 11 1 17 -2 13 -5z m783 -14 c-8 -5
-19 -10 -25 -10 -5 0 -3 5 5 10 8 5 20 10 25 10 6 0 3 -5 -5 -10z m-130 -10
c-8 -5 -19 -10 -25 -10 -5 0 -3 5 5 10 8 5 20 10 25 10 6 0 3 -5 -5 -10z m80
-10 c-8 -5 -19 -10 -25 -10 -5 0 -3 5 5 10 8 5 20 10 25 10 6 0 3 -5 -5 -10z
m-160 -20 c-8 -5 -22 -9 -30 -9 -10 0 -8 3 5 9 27 12 43 12 25 0z m469 -16
c14 -12 -19 -1 -35 12 -18 14 -18 14 6 3 14 -6 27 -13 29 -15z"/>
<path d="M372 1208 l3 -53 98 -3 97 -3 0 46 c0 28 -5 47 -12 49 -7 3 -53 7
-101 10 l-88 6 3 -52z"/>
<path d="M731 1204 c0 -11 3 -14 6 -6 3 7 2 16 -1 19 -3 4 -6 -2 -5 -13z"/>
<path d="M811 1204 c0 -11 3 -14 6 -6 3 7 2 16 -1 19 -3 4 -6 -2 -5 -13z"/>
<path d="M546 1005 c-3 -8 -1 -15 4 -15 13 0 22 18 11 24 -5 3 -11 -1 -15 -9z"/>
<path d="M800 1000 c0 -5 5 -10 11 -10 5 0 7 5 4 10 -3 6 -8 10 -11 10 -2 0
-4 -4 -4 -10z"/>
<path d="M394 968 c-3 -4 6 -8 20 -8 14 0 26 4 26 9 0 11 -39 10 -46 -1z"/>
<path d="M1084 1195 c0 -71 1 -99 3 -62 2 37 2 96 0 130 -2 34 -3 4 -3 -68z"/>
<path d="M1080 1043 c0 -12 -6 -24 -12 -26 -10 -4 -10 -6 0 -6 8 -1 12 -24 12
-81 0 -70 2 -80 18 -80 13 0 14 2 4 9 -10 6 -12 33 -11 99 2 51 0 95 -4 99 -4
3 -7 -3 -7 -14z"/>
<path d="M1048 863 c7 -3 16 -2 19 1 4 3 -2 6 -13 5 -11 0 -14 -3 -6 -6z"/>
<path d="M1970 1725 c-14 -8 -20 -14 -15 -14 6 0 21 6 35 14 14 8 21 14 15 14
-5 0 -21 -6 -35 -14z"/>
<path d="M1900 1694 l-25 -15 25 7 c14 3 29 10 35 15 15 14 -7 10 -35 -7z"/>
<path d="M1590 1560 c-9 -6 -10 -10 -3 -10 6 0 15 5 18 10 8 12 4 12 -15 0z"/>
<path d="M1418 1343 c17 -3 22 -11 22 -34 0 -16 5 -29 10 -29 6 0 10 16 10 35
0 33 -2 35 -32 34 -24 -1 -27 -3 -10 -6z"/>
<path d="M1505 1168 c-9 -24 -1 -103 10 -103 14 0 19 95 6 108 -7 7 -12 5 -16
-5z"/>
<path d="M1441 1098 c1 -52 3 -66 9 -48 12 36 12 120 0 120 -6 0 -10 -30 -9
-72z"/>
<path d="M1477 1153 c-4 -3 -7 -13 -7 -22 1 -13 3 -13 11 2 11 19 8 33 -4 20z"/>
<path d="M1486 1042 c-9 -16 11 -32 37 -30 34 3 34 11 2 26 -31 14 -32 14 -39
4z"/>
<path d="M1316 993 c-3 -21 -7 -44 -8 -50 -1 -7 -4 -13 -8 -13 -3 0 -7 -15 -8
-34 -3 -34 -2 -35 53 -46 31 -6 63 -9 71 -6 9 3 12 1 9 -4 -4 -6 8 -10 27 -10
72 0 294 -36 377 -62 25 -8 30 -13 20 -19 -9 -6 0 -9 28 -7 41 2 41 2 49 47 4
25 7 57 6 71 -1 21 0 22 6 7 7 -17 9 -16 20 8 15 33 15 36 -3 29 -9 -4 -15 0
-15 9 0 8 4 17 10 19 5 2 6 9 1 16 -7 11 -17 9 -49 -12 -33 -20 -54 -26 -99
-25 -54 0 -154 26 -161 40 -2 4 -16 0 -32 -8 -21 -10 -30 -22 -30 -39 0 -16
-4 -23 -11 -18 -6 3 -15 0 -20 -7 -6 -10 -9 -7 -10 11 0 23 -1 23 -9 5 -8 -19
-8 -19 -18 5 -9 22 -11 22 -12 5 l-1 -20 -9 20 -9 20 -1 -20 c-2 -17 -3 -16
-10 5 -8 25 -8 25 -10 -5 -2 -30 -2 -30 -10 -5 -8 24 -8 23 -9 -7 -1 -18 -6
-33 -12 -33 -7 0 -9 12 -5 33 6 35 -6 95 -18 87 -4 -3 -15 8 -23 24 -11 20
-17 25 -23 16 -5 -9 -9 -9 -14 -1 -13 21 -24 11 -30 -26z"/>
<path d="M1585 1009 c-11 -17 0 -20 21 -4 17 13 17 14 2 15 -9 0 -20 -5 -23
-11z"/>
<path d="M1325 820 c3 -5 11 -10 16 -10 6 0 7 5 4 10 -3 6 -11 10 -16 10 -6 0
-7 -4 -4 -10z"/>
<path d="M1375 800 c27 -12 43 -12 25 0 -8 5 -22 9 -30 9 -10 0 -8 -3 5 -9z"/>
<path d="M1110 740 c0 -5 5 -10 10 -10 6 0 10 5 10 10 0 6 -4 10 -10 10 -5 0
-10 -4 -10 -10z"/>
<path d="M1163 743 c9 -2 23 -2 30 0 6 3 -1 5 -18 5 -16 0 -22 -2 -12 -5z"/>
<path d="M1033 733 c9 -2 23 -2 30 0 6 3 -1 5 -18 5 -16 0 -22 -2 -12 -5z"/>
<path d="M695 530 c26 -11 35 -12 35 -2 0 4 -12 8 -27 9 -24 1 -25 1 -8 -7z"/>
<path d="M658 493 c7 -3 16 -2 19 1 4 3 -2 6 -13 5 -11 0 -14 -3 -6 -6z"/>
<path d="M462 221 c-11 -36 -17 -129 -8 -120 5 5 26 152 22 156 -1 2 -8 -14
-14 -36z"/>
<path d="M780 122 c0 -5 7 -9 15 -9 8 0 15 4 15 9 0 4 -7 8 -15 8 -8 0 -15 -4
-15 -8z"/>
<path d="M850 122 c0 -12 19 -26 26 -19 2 2 -2 10 -11 17 -9 8 -15 8 -15 2z"/>
<path d="M1350 90 c-8 -5 -10 -10 -5 -10 6 0 17 5 25 10 8 5 11 10 5 10 -5 0
-17 -5 -25 -10z"/>
<path d="M436 49 c-4 -23 -5 -44 -2 -46 2 -2 7 14 11 37 4 23 5 43 2 46 -2 3
-7 -14 -11 -37z"/>
<path d="M1308 73 c7 -3 16 -2 19 1 4 3 -2 6 -13 5 -11 0 -14 -3 -6 -6z"/>
</g>
</svg>
